REM DIRINDEX 1\2,1\3,1\4
REM DIRNAME folder01,folder02,folder03,folder04
TITLE ""
FILE "050 050_TOEFL_3900.mp3" MP3
  TRACK 01 AUDIO
    TITLE "2:cjc151_2145"
    INDEX 01 00:00:00
  TRACK 02 AUDIO
    TITLE "0:"
    INDEX 01 00:00:74
  TRACK 03 AUDIO
    TITLE "3:cjc151_2146"
    INDEX 01 00:02:55
  TRACK 04 AUDIO
    TITLE "0:"
    INDEX 01 00:06:00
  TRACK 05 AUDIO
    TITLE "2:cjc151_2147"
    INDEX 01 00:07:54
  TRACK 06 AUDIO
    TITLE "0:"
    INDEX 01 00:08:62
  TRACK 07 AUDIO
    TITLE "3:cjc151_2148"
    INDEX 01 00:10:39
  TRACK 08 AUDIO
    TITLE "0:"
    INDEX 01 00:14:02
  TRACK 09 AUDIO
    TITLE "2:cjc151_2149"
    INDEX 01 00:15:56
  TRACK 10 AUDIO
    TITLE "0:"
    INDEX 01 00:16:51
  TRACK 11 AUDIO
    TITLE "3:cjc151_2150"
    INDEX 01 00:18:27
  TRACK 12 AUDIO
    TITLE "0:"
    INDEX 01 00:21:66
  TRACK 13 AUDIO
    TITLE "2:cjc151_2151"
    INDEX 01 00:23:53
  TRACK 14 AUDIO
    TITLE "0:"
    INDEX 01 00:24:59
  TRACK 15 AUDIO
    TITLE "3:cjc151_2152"
    INDEX 01 00:26:32
  TRACK 16 AUDIO
    TITLE "0:"
    INDEX 01 00:30:48
  TRACK 17 AUDIO
    TITLE "2:cjc151_2153"
    INDEX 01 00:32:25
  TRACK 18 AUDIO
    TITLE "0:"
    INDEX 01 00:33:42
  TRACK 19 AUDIO
    TITLE "3:cjc151_2154"
    INDEX 01 00:35:19
  TRACK 20 AUDIO
    TITLE "0:"
    INDEX 01 00:38:55
  TRACK 21 AUDIO
    TITLE "2:cjc151_2155"
    INDEX 01 00:40:34
  TRACK 22 AUDIO
    TITLE "0:"
    INDEX 01 00:41:40
  TRACK 23 AUDIO
    TITLE "3:cjc151_2156"
    INDEX 01 00:43:17
  TRACK 24 AUDIO
    TITLE "0:"
    INDEX 01 00:46:74
  TRACK 25 AUDIO
    TITLE "2:cjc151_2157"
    INDEX 01 00:48:51
  TRACK 26 AUDIO
    TITLE "0:"
    INDEX 01 00:49:53
  TRACK 27 AUDIO
    TITLE "3:cjc151_2158"
    INDEX 01 00:51:32
  TRACK 28 AUDIO
    TITLE "0:"
    INDEX 01 00:54:52
  TRACK 29 AUDIO
    TITLE "2:cjc151_2159"
    INDEX 01 00:56:43
  TRACK 30 AUDIO
    TITLE "0:"
    INDEX 01 00:57:52
  TRACK 31 AUDIO
    TITLE "3:cjc151_2160"
    INDEX 01 00:59:30
  TRACK 32 AUDIO
    TITLE "0:"
    INDEX 01 01:03:47
  TRACK 33 AUDIO
    TITLE "2:cjc151_2161"
    INDEX 01 01:05:24
  TRACK 34 AUDIO
    TITLE "0:"
    INDEX 01 01:06:12
  TRACK 35 AUDIO
    TITLE "3:cjc151_2162"
    INDEX 01 01:08:05
  TRACK 36 AUDIO
    TITLE "0:"
    INDEX 01 01:12:40
  TRACK 37 AUDIO
    TITLE "2:cjc151_2163"
    INDEX 01 01:14:17
  TRACK 38 AUDIO
    TITLE "0:"
    INDEX 01 01:15:25
  TRACK 39 AUDIO
    TITLE "3:cjc151_2164"
    INDEX 01 01:17:04
  TRACK 40 AUDIO
    TITLE "0:"
    INDEX 01 01:21:10
  TRACK 41 AUDIO
    TITLE "2:cjc151_2165"
    INDEX 01 01:22:62
  TRACK 42 AUDIO
    TITLE "0:"
    INDEX 01 01:23:71
  TRACK 43 AUDIO
    TITLE "3:cjc151_2166"
    INDEX 01 01:25:51
  TRACK 44 AUDIO
    TITLE "0:"
    INDEX 01 01:29:43
  TRACK 45 AUDIO
    TITLE "2:cjc151_2167"
    INDEX 01 01:31:20
  TRACK 46 AUDIO
    TITLE "0:"
    INDEX 01 01:32:23
  TRACK 47 AUDIO
    TITLE "3:cjc151_2168"
    INDEX 01 01:34:03
  TRACK 48 AUDIO
    TITLE "0:"
    INDEX 01 01:38:02
  TRACK 49 AUDIO
    TITLE "2:cjc151_2169"
    INDEX 01 01:39:55
  TRACK 50 AUDIO
    TITLE "0:"
    INDEX 01 01:40:70
  TRACK 51 AUDIO
    TITLE "3:cjc151_2170"
    INDEX 01 01:42:47
  TRACK 52 AUDIO
    TITLE "0:"
    INDEX 01 01:46:59
  TRACK 53 AUDIO
    TITLE "2:cjc151_2171"
    INDEX 01 01:48:38
  TRACK 54 AUDIO
    TITLE "0:"
    INDEX 01 01:49:41
  TRACK 55 AUDIO
    TITLE "3:cjc151_2172"
    INDEX 01 01:51:21
  TRACK 56 AUDIO
    TITLE "0:"
    INDEX 01 01:54:41
  TRACK 57 AUDIO
    TITLE "2:cjc151_2173"
    INDEX 01 01:56:20
  TRACK 58 AUDIO
    TITLE "0:"
    INDEX 01 01:57:23
  TRACK 59 AUDIO
    TITLE "3:cjc151_2174"
    INDEX 01 01:58:72
  TRACK 60 AUDIO
    TITLE "0:"
    INDEX 01 02:02:01
  TRACK 61 AUDIO
    TITLE "2:cjc151_2175"
    INDEX 01 02:03:53
  TRACK 62 AUDIO
    TITLE "0:"
    INDEX 01 02:04:62
  TRACK 63 AUDIO
    TITLE "3:cjc151_2176"
    INDEX 01 02:06:42
  TRACK 64 AUDIO
    TITLE "0:"
    INDEX 01 02:10:65
  TRACK 65 AUDIO
    TITLE "2:cjc151_2177"
    INDEX 01 02:12:44
  TRACK 66 AUDIO
    TITLE "0:"
    INDEX 01 02:13:46
  TRACK 67 AUDIO
    TITLE "3:cjc151_2178"
    INDEX 01 02:15:27
  TRACK 68 AUDIO
    TITLE "0:"
    INDEX 01 02:19:03
  TRACK 69 AUDIO
    TITLE "2:cjc151_2179"
    INDEX 01 02:20:56
  TRACK 70 AUDIO
    TITLE "0:"
    INDEX 01 02:21:53
  TRACK 71 AUDIO
    TITLE "3:cjc151_2180"
    INDEX 01 02:23:32
  TRACK 72 AUDIO
    TITLE "0:"
    INDEX 01 02:27:36
  TRACK 73 AUDIO
    TITLE "2:cjc151_2181"
    INDEX 01 02:29:17
  TRACK 74 AUDIO
    TITLE "0:"
    INDEX 01 02:30:25
  TRACK 75 AUDIO
    TITLE "3:cjc151_2182"
    INDEX 01 02:32:04
  TRACK 76 AUDIO
    TITLE "0:"
    INDEX 01 02:36:33
  TRACK 77 AUDIO
    TITLE "2:cjc151_2183"
    INDEX 01 02:38:12
  TRACK 78 AUDIO
    TITLE "0:"
    INDEX 01 02:39:29
  TRACK 79 AUDIO
    TITLE "3:cjc151_2184"
    INDEX 01 02:41:07
  TRACK 80 AUDIO
    TITLE "0:"
    INDEX 01 02:45:42
  TRACK 81 AUDIO
    TITLE "2:cjc151_2185"
    INDEX 01 02:47:19
  TRACK 82 AUDIO
    TITLE "0:"
    INDEX 01 02:48:09
  TRACK 83 AUDIO
    TITLE "3:cjc151_2186"
    INDEX 01 02:49:63
  TRACK 84 AUDIO
    TITLE "0:"
    INDEX 01 02:54:13
  TRACK 85 AUDIO
    TITLE "2:cjc151_2187"
    INDEX 01 02:55:66
  TRACK 86 AUDIO
    TITLE "0:"
    INDEX 01 02:57:12
  TRACK 87 AUDIO
    TITLE "3:cjc151_2188"
    INDEX 01 02:58:66
  TRACK 88 AUDIO
    TITLE "0:"
    INDEX 01 03:03:48
